<?xml version="1.0" standalone="no"?>
<!DOCTYPE svg PUBLIC "-//W3C//DTD SVG 20010904//EN"
 "http://www.w3.org/TR/2001/REC-SVG-20010904/DTD/svg10.dtd">
<svg version="1.0" xmlns="http://www.w3.org/2000/svg"
 width="512.000000pt" height="512.000000pt" viewBox="0 0 512.000000 512.000000"
 preserveAspectRatio="xMidYMid meet">
<metadata>
Created by potrace 1.14, written by Peter Selinger 2001-2017
</metadata>
<g transform="translate(0.000000,512.000000) scale(0.100000,-0.100000)"
fill="#000000" stroke="none">
<path d="M2512 4592 c-64 -172 -155 -498 -176 -632 -3 -19 -8 -46 -11 -60 -7
-35 -13 -68 -19 -120 -3 -25 -8 -55 -10 -67 -3 -12 -8 -53 -11 -90 -4 -37 -9
-84 -12 -103 -9 -65 -11 -554 -2 -665 13 -165 35 -322 84 -590 24 -133 46
-253 49 -266 3 -13 7 -37 10 -54 2 -16 7 -41 10 -55 3 -14 7 -38 10 -55 2 -16
14 -82 25 -145 12 -63 21 -124 20 -135 0 -11 -40 99 -88 245 -49 146 -106 308
-128 360 -196 463 -461 854 -807 1189 -102 98 -101 97 -170 156 l-58 49 5 -39
c15 -103 59 -283 105 -435 148 -481 426 -966 773 -1345 35 -39 102 -113 149
-165 47 -52 108 -119 135 -150 28 -30 43 -50 35 -44 -31 22 -155 119 -160 124
-17 18 -240 175 -316 222 -280 172 -670 324 -963 373 -19 3 -37 7 -40 9 -3 2
-22 7 -41 10 -19 3 -47 8 -63 11 -15 3 -27 3 -27 0 0 -8 88 -94 180 -175 47
-41 87 -78 90 -81 11 -13 199 -148 266 -191 119 -76 312 -178 439 -231 102
-43 325 -115 442 -143 62 -15 112 -28 110 -30 -1 -1 -31 -5 -67 -9 -124 -12
-204 -29 -322 -65 -90 -28 -211 -77 -248 -100 -8 -6 -33 -19 -55 -30 -61 -31
-205 -138 -282 -209 l-68 -63 165 5 c339 11 568 87 865 285 72 48 133 89 138
90 4 2 7 -160 7 -360 0 -399 0 -400 60 -413 42 -9 68 2 85 35 12 24 15 89 15
385 0 195 2 355 5 355 2 0 61 -38 129 -85 235 -159 431 -239 691 -281 17 -3
102 -8 190 -11 l160 -5 -35 34 c-270 256 -584 401 -945 434 -32 2 -61 6 -62 8
-3 2 127 36 163 42 6 1 72 21 145 44 370 117 694 295 989 545 101 86 233 215
226 222 -7 7 -319 -64 -451 -103 -66 -20 -172 -56 -235 -81 -110 -43 -347
-158 -400 -193 -14 -9 -63 -41 -110 -71 -104 -67 -226 -158 -402 -301 -46 -37
-63 -45 -35 -16 19 20 188 208 222 247 17 19 37 41 45 50 171 178 415 499 518
683 157 280 247 487 332 768 41 138 100 396 92 405 -11 11 -305 -267 -412
-390 -148 -170 -322 -419 -423 -605 -145 -267 -207 -424 -358 -900 -46 -143
-51 -111 -14 90 65 361 127 703 131 730 2 19 7 45 10 58 9 44 34 248 42 342 9
123 9 550 -1 661 -13 154 -32 290 -58 429 -11 58 -23 116 -25 130 -27 142
-186 650 -204 650 -3 0 -25 -53 -48 -118z"/>
</g>
</svg>
